<mxfile host="app.diagrams.net" agent="Mozilla/5.0 (Macintosh; Intel Mac OS X 10_15_7) AppleWebKit/537.36 (KHTML, like Gecko) Chrome/132.0.0.0 Safari/537.36" version="26.1.0">
  <diagram name="第 1 页" id="F6PljOLyG9azyLXPhSDL">
    <mxGraphModel dx="1004" dy="537" grid="1" gridSize="10" guides="1" tooltips="1" connect="1" arrows="1" fold="1" page="1" pageScale="1" pageWidth="1654" pageHeight="1169" math="0" shadow="0">
      <root>
        <mxCell id="0" />
        <mxCell id="1" parent="0" />
        <mxCell id="Rp6ea-_ialCVZ0uuq4UE-31" value="" style="rounded=0;whiteSpace=wrap;html=1;dashed=1;dashPattern=1 4;fillColor=#e1d5e7;strokeColor=#9673a6;" vertex="1" parent="1">
          <mxGeometry x="1310" y="90" width="180" height="410" as="geometry" />
        </mxCell>
        <mxCell id="Rp6ea-_ialCVZ0uuq4UE-16" value="" style="rounded=0;whiteSpace=wrap;html=1;dashed=1;dashPattern=1 4;fillColor=#fff2cc;strokeColor=#d6b656;" vertex="1" parent="1">
          <mxGeometry x="685" y="90" width="545" height="410" as="geometry" />
        </mxCell>
        <mxCell id="Rp6ea-_ialCVZ0uuq4UE-14" value="" style="rounded=0;whiteSpace=wrap;html=1;dashed=1;dashPattern=1 4;fillColor=#f5f5f5;fontColor=#333333;strokeColor=#666666;" vertex="1" parent="1">
          <mxGeometry x="170" y="90" width="180" height="410" as="geometry" />
        </mxCell>
        <mxCell id="Rp6ea-_ialCVZ0uuq4UE-1" value="account表" style="rounded=0;whiteSpace=wrap;html=1;fillColor=#d5e8d4;strokeColor=#82b366;" vertex="1" parent="1">
          <mxGeometry x="200" y="120" width="120" height="60" as="geometry" />
        </mxCell>
        <mxCell id="Rp6ea-_ialCVZ0uuq4UE-6" style="edgeStyle=orthogonalEdgeStyle;rounded=0;orthogonalLoop=1;jettySize=auto;html=1;exitX=1;exitY=0.5;exitDx=0;exitDy=0;" edge="1" parent="1" source="Rp6ea-_ialCVZ0uuq4UE-2">
          <mxGeometry relative="1" as="geometry">
            <mxPoint x="430" y="300" as="targetPoint" />
          </mxGeometry>
        </mxCell>
        <mxCell id="Rp6ea-_ialCVZ0uuq4UE-10" value="Jins订阅&lt;br&gt;(&lt;font style=&quot;color: rgb(255, 51, 51);&quot;&gt;10TPS&lt;/font&gt;)" style="edgeLabel;html=1;align=center;verticalAlign=middle;resizable=0;points=[];" vertex="1" connectable="0" parent="Rp6ea-_ialCVZ0uuq4UE-6">
          <mxGeometry x="-0.5656" relative="1" as="geometry">
            <mxPoint x="12" as="offset" />
          </mxGeometry>
        </mxCell>
        <mxCell id="Rp6ea-_ialCVZ0uuq4UE-2" value="day_budget表" style="rounded=0;whiteSpace=wrap;html=1;fillColor=#d5e8d4;strokeColor=#82b366;" vertex="1" parent="1">
          <mxGeometry x="199" y="270" width="120" height="60" as="geometry" />
        </mxCell>
        <mxCell id="Rp6ea-_ialCVZ0uuq4UE-3" value="account_day_cost表" style="rounded=0;whiteSpace=wrap;html=1;fillColor=#d5e8d4;strokeColor=#82b366;" vertex="1" parent="1">
          <mxGeometry x="200" y="420" width="120" height="60" as="geometry" />
        </mxCell>
        <mxCell id="Rp6ea-_ialCVZ0uuq4UE-13" value="&lt;div&gt;消费通知&lt;/div&gt;（&lt;font style=&quot;color: rgb(255, 51, 51);&quot;&gt;6210TPS&lt;/font&gt;）" style="edgeStyle=orthogonalEdgeStyle;rounded=0;orthogonalLoop=1;jettySize=auto;html=1;entryX=0;entryY=0.5;entryDx=0;entryDy=0;" edge="1" parent="1" source="Rp6ea-_ialCVZ0uuq4UE-4" target="Rp6ea-_ialCVZ0uuq4UE-23">
          <mxGeometry relative="1" as="geometry">
            <mxPoint x="760" y="300" as="targetPoint" />
          </mxGeometry>
        </mxCell>
        <mxCell id="Rp6ea-_ialCVZ0uuq4UE-4" value="RMQ消息队列" style="shape=cylinder3;whiteSpace=wrap;html=1;boundedLbl=1;backgroundOutline=1;size=15;direction=south;fillColor=#f8cecc;strokeColor=#b85450;" vertex="1" parent="1">
          <mxGeometry x="431" y="270" width="130" height="60" as="geometry" />
        </mxCell>
        <mxCell id="Rp6ea-_ialCVZ0uuq4UE-5" style="edgeStyle=orthogonalEdgeStyle;rounded=0;orthogonalLoop=1;jettySize=auto;html=1;exitX=1;exitY=0.5;exitDx=0;exitDy=0;entryX=0.5;entryY=1;entryDx=0;entryDy=0;entryPerimeter=0;" edge="1" parent="1" source="Rp6ea-_ialCVZ0uuq4UE-1" target="Rp6ea-_ialCVZ0uuq4UE-4">
          <mxGeometry relative="1" as="geometry">
            <Array as="points">
              <mxPoint x="390" y="150" />
              <mxPoint x="390" y="300" />
            </Array>
          </mxGeometry>
        </mxCell>
        <mxCell id="Rp6ea-_ialCVZ0uuq4UE-8" value="Jins订阅&lt;br&gt;(&lt;font style=&quot;color: rgb(255, 51, 51);&quot;&gt;2200TPS&lt;/font&gt;)" style="edgeLabel;html=1;align=center;verticalAlign=middle;resizable=0;points=[];" vertex="1" connectable="0" parent="Rp6ea-_ialCVZ0uuq4UE-5">
          <mxGeometry x="-0.1154" y="1" relative="1" as="geometry">
            <mxPoint as="offset" />
          </mxGeometry>
        </mxCell>
        <mxCell id="Rp6ea-_ialCVZ0uuq4UE-7" style="edgeStyle=orthogonalEdgeStyle;rounded=0;orthogonalLoop=1;jettySize=auto;html=1;exitX=1;exitY=0.5;exitDx=0;exitDy=0;entryX=0.5;entryY=1;entryDx=0;entryDy=0;entryPerimeter=0;" edge="1" parent="1" source="Rp6ea-_ialCVZ0uuq4UE-3" target="Rp6ea-_ialCVZ0uuq4UE-4">
          <mxGeometry relative="1" as="geometry">
            <Array as="points">
              <mxPoint x="390" y="450" />
              <mxPoint x="390" y="300" />
            </Array>
          </mxGeometry>
        </mxCell>
        <mxCell id="Rp6ea-_ialCVZ0uuq4UE-11" value="Jins订阅&lt;br&gt;(&lt;font style=&quot;color: rgb(255, 51, 51);&quot;&gt;4000TPS&lt;/font&gt;)" style="edgeLabel;html=1;align=center;verticalAlign=middle;resizable=0;points=[];" vertex="1" connectable="0" parent="Rp6ea-_ialCVZ0uuq4UE-7">
          <mxGeometry x="-0.0385" y="1" relative="1" as="geometry">
            <mxPoint as="offset" />
          </mxGeometry>
        </mxCell>
        <mxCell id="Rp6ea-_ialCVZ0uuq4UE-18" value="&lt;span style=&quot;color: rgb(0, 0, 0); font-family: Helvetica; font-size: 12px; font-style: normal; font-variant-ligatures: normal; font-variant-caps: normal; font-weight: 400; letter-spacing: normal; orphans: 2; text-indent: 0px; text-transform: none; widows: 2; word-spacing: 0px; -webkit-text-stroke-width: 0px; white-space: normal; background-color: rgb(251, 251, 251); text-decoration-thickness: initial; text-decoration-style: initial; text-decoration-color: initial; float: none; display: inline !important;&quot;&gt;account-thirdparty-consumer&lt;/span&gt;" style="text;html=1;align=left;verticalAlign=middle;whiteSpace=wrap;rounded=0;fillColor=#DEDEDE;strokeColor=#DEDEDE;fontColor=#333333;" vertex="1" parent="1">
          <mxGeometry x="685" y="90" width="155" height="21" as="geometry" />
        </mxCell>
        <mxCell id="Rp6ea-_ialCVZ0uuq4UE-28" style="edgeStyle=orthogonalEdgeStyle;rounded=0;orthogonalLoop=1;jettySize=auto;html=1;exitX=1;exitY=0.5;exitDx=0;exitDy=0;entryX=0;entryY=0.5;entryDx=0;entryDy=0;curved=1;" edge="1" parent="1" source="Rp6ea-_ialCVZ0uuq4UE-19" target="Rp6ea-_ialCVZ0uuq4UE-27">
          <mxGeometry relative="1" as="geometry" />
        </mxCell>
        <mxCell id="Rp6ea-_ialCVZ0uuq4UE-19" value="account表查询" style="rounded=0;whiteSpace=wrap;html=1;" vertex="1" parent="1">
          <mxGeometry x="868" y="180" width="137.5" height="50" as="geometry" />
        </mxCell>
        <mxCell id="Rp6ea-_ialCVZ0uuq4UE-29" style="edgeStyle=orthogonalEdgeStyle;rounded=0;orthogonalLoop=1;jettySize=auto;html=1;exitX=1;exitY=0.5;exitDx=0;exitDy=0;" edge="1" parent="1" source="Rp6ea-_ialCVZ0uuq4UE-20">
          <mxGeometry relative="1" as="geometry">
            <mxPoint x="1080" y="300.2631578947369" as="targetPoint" />
          </mxGeometry>
        </mxCell>
        <mxCell id="Rp6ea-_ialCVZ0uuq4UE-20" value="day_budget表查询" style="rounded=0;whiteSpace=wrap;html=1;" vertex="1" parent="1">
          <mxGeometry x="867" y="278" width="137.5" height="45" as="geometry" />
        </mxCell>
        <mxCell id="Rp6ea-_ialCVZ0uuq4UE-30" style="edgeStyle=orthogonalEdgeStyle;rounded=0;orthogonalLoop=1;jettySize=auto;html=1;exitX=1;exitY=0.5;exitDx=0;exitDy=0;entryX=0;entryY=0.5;entryDx=0;entryDy=0;curved=1;" edge="1" parent="1" source="Rp6ea-_ialCVZ0uuq4UE-21" target="Rp6ea-_ialCVZ0uuq4UE-27">
          <mxGeometry relative="1" as="geometry" />
        </mxCell>
        <mxCell id="Rp6ea-_ialCVZ0uuq4UE-21" value="account_day_cost表查询" style="rounded=0;whiteSpace=wrap;html=1;" vertex="1" parent="1">
          <mxGeometry x="867" y="364" width="137.5" height="50" as="geometry" />
        </mxCell>
        <mxCell id="Rp6ea-_ialCVZ0uuq4UE-24" style="edgeStyle=orthogonalEdgeStyle;rounded=0;orthogonalLoop=1;jettySize=auto;html=1;exitX=1;exitY=0.5;exitDx=0;exitDy=0;entryX=0;entryY=0.5;entryDx=0;entryDy=0;curved=1;strokeWidth=1;" edge="1" parent="1" source="Rp6ea-_ialCVZ0uuq4UE-23" target="Rp6ea-_ialCVZ0uuq4UE-19">
          <mxGeometry relative="1" as="geometry" />
        </mxCell>
        <mxCell id="Rp6ea-_ialCVZ0uuq4UE-25" style="edgeStyle=orthogonalEdgeStyle;rounded=0;orthogonalLoop=1;jettySize=auto;html=1;exitX=1;exitY=0.5;exitDx=0;exitDy=0;entryX=0;entryY=0.5;entryDx=0;entryDy=0;curved=1;" edge="1" parent="1" source="Rp6ea-_ialCVZ0uuq4UE-23" target="Rp6ea-_ialCVZ0uuq4UE-20">
          <mxGeometry relative="1" as="geometry" />
        </mxCell>
        <mxCell id="Rp6ea-_ialCVZ0uuq4UE-26" style="edgeStyle=orthogonalEdgeStyle;rounded=0;orthogonalLoop=1;jettySize=auto;html=1;exitX=1;exitY=0.5;exitDx=0;exitDy=0;entryX=0;entryY=0.5;entryDx=0;entryDy=0;curved=1;" edge="1" parent="1" source="Rp6ea-_ialCVZ0uuq4UE-23" target="Rp6ea-_ialCVZ0uuq4UE-21">
          <mxGeometry relative="1" as="geometry" />
        </mxCell>
        <mxCell id="Rp6ea-_ialCVZ0uuq4UE-23" value="批量消费&lt;br&gt;(同一批账户ID去重)" style="rounded=0;whiteSpace=wrap;html=1;" vertex="1" parent="1">
          <mxGeometry x="705" y="277.5" width="110" height="47.5" as="geometry" />
        </mxCell>
        <mxCell id="Rp6ea-_ialCVZ0uuq4UE-34" style="edgeStyle=orthogonalEdgeStyle;rounded=0;orthogonalLoop=1;jettySize=auto;html=1;exitX=1;exitY=0.5;exitDx=0;exitDy=0;entryX=0;entryY=0.5;entryDx=0;entryDy=0;dashed=1;" edge="1" parent="1" source="Rp6ea-_ialCVZ0uuq4UE-27" target="Rp6ea-_ialCVZ0uuq4UE-32">
          <mxGeometry relative="1" as="geometry" />
        </mxCell>
        <mxCell id="Rp6ea-_ialCVZ0uuq4UE-27" value="HTTP推送第三方接口" style="rounded=0;whiteSpace=wrap;html=1;" vertex="1" parent="1">
          <mxGeometry x="1080" y="275.5" width="120" height="47.5" as="geometry" />
        </mxCell>
        <mxCell id="Rp6ea-_ialCVZ0uuq4UE-32" value="第三方HTTP服务" style="rounded=0;whiteSpace=wrap;html=1;" vertex="1" parent="1">
          <mxGeometry x="1340" y="276.25" width="120" height="47.5" as="geometry" />
        </mxCell>
        <mxCell id="Rp6ea-_ialCVZ0uuq4UE-36" value="&lt;span style=&quot;color: rgb(0, 0, 0); font-family: Helvetica; font-size: 12px; font-style: normal; font-variant-ligatures: normal; font-variant-caps: normal; font-weight: 400; letter-spacing: normal; orphans: 2; text-indent: 0px; text-transform: none; widows: 2; word-spacing: 0px; -webkit-text-stroke-width: 0px; white-space: normal; background-color: rgb(251, 251, 251); text-decoration-thickness: initial; text-decoration-style: initial; text-decoration-color: initial; float: none; display: inline !important;&quot;&gt;三方服务&lt;/span&gt;" style="text;html=1;align=left;verticalAlign=middle;whiteSpace=wrap;rounded=0;fillColor=#DEDEDE;strokeColor=#DEDEDE;fontColor=#333333;" vertex="1" parent="1">
          <mxGeometry x="1310" y="90" width="50" height="20" as="geometry" />
        </mxCell>
        <mxCell id="Rp6ea-_ialCVZ0uuq4UE-37" value="&lt;span style=&quot;color: rgb(0, 0, 0); font-family: Helvetica; font-size: 12px; font-style: normal; font-variant-ligatures: normal; font-variant-caps: normal; font-weight: 400; letter-spacing: normal; orphans: 2; text-indent: 0px; text-transform: none; widows: 2; word-spacing: 0px; -webkit-text-stroke-width: 0px; white-space: normal; background-color: rgb(251, 251, 251); text-decoration-thickness: initial; text-decoration-style: initial; text-decoration-color: initial; float: none; display: inline !important;&quot;&gt;数据库表&lt;/span&gt;" style="text;html=1;align=left;verticalAlign=middle;whiteSpace=wrap;rounded=0;fillColor=#DEDEDE;strokeColor=#DEDEDE;fontColor=#333333;" vertex="1" parent="1">
          <mxGeometry x="170" y="89" width="50" height="20" as="geometry" />
        </mxCell>
      </root>
    </mxGraphModel>
  </diagram>
</mxfile>
